<svg width="267" height="331" viewBox="0 0 267 331" fill="none" xmlns="http://www.w3.org/2000/svg">
<path fill-rule="evenodd" clip-rule="evenodd" d="M265.798 99.9731L212.942 157.148L235.771 57.1945L205.332 73.4422L182.503 11.3309L159.468 73.2365L129.03 56.9889L151.859 156.943L97.7686 98.7391L94.2723 124.242L49.8483 111.285L70.415 159.616L51.6993 164.758L115.045 212.061C187.233 184.296 232.48 192.317 258.805 203.012C254.898 218.231 249.139 232.422 241.529 245.585C239.267 244.351 237.005 243.322 234.742 242.294C225.487 238.181 214.381 234.684 201.219 232.833C195.871 232.011 190.318 231.6 184.765 231.188C179.829 230.983 174.893 230.777 169.957 230.983C154.944 231.188 138.079 233.039 118.747 236.741C117.924 236.947 117.307 236.947 116.484 237.153C112.988 237.77 109.492 238.386 106.201 238.798C57.8693 245.173 27.842 230.777 9.94907 214.529C8.09808 209.182 6.45275 203.835 5.21875 198.282C23.1117 216.997 54.7843 233.451 107.435 215.352L36.48 162.496L61.16 155.709L38.1254 101.413L88.5136 116.221L92.8326 84.3425L139.519 134.731L118.952 45.0602L155.561 64.3928L177.978 3.51562C180.858 3.92696 183.737 4.3383 186.822 4.74964L208.623 64.1872L245.231 44.8546L224.665 134.525L265.592 90.5125L265.798 99.9731ZM107.229 249.698C57.2523 253.811 29.076 239.826 13.2397 222.55C15.7077 228.926 18.7927 235.096 22.0834 241.266C22.2891 241.677 22.4947 241.883 22.7004 242.294C37.5084 253.194 62.5996 263.478 104.556 266.974C148.568 270.47 177.567 282.399 196.694 295.973C208.211 287.129 218.289 277.257 226.927 266.563C205.538 254.223 168.929 244.762 107.229 249.698Z" fill="#FFFFFE"/>
<path fill-rule="evenodd" clip-rule="evenodd" d="M22.7019 242.293C46.5592 285.483 84.8131 309.752 129.031 329.085C131.705 330.319 134.584 330.319 137.052 329.085C150.009 323.12 164.406 317.156 176.54 309.752C183.327 305.639 190.114 300.908 196.49 296.178C177.363 282.604 148.364 270.675 104.351 267.179C62.6011 263.477 37.5099 253.194 22.7019 242.293ZM118.748 236.535C63.0125 247.23 29.4889 231.804 10.1562 214.117C11.1846 216.997 12.2129 219.67 13.2412 222.55C29.0775 239.825 57.2538 253.811 107.231 249.697C168.931 244.762 205.334 254.222 226.928 266.562C232.276 259.981 237.212 252.988 241.531 245.584C218.085 232.627 179.831 224.812 118.748 236.535Z" fill="#0A0B09"/>
<path fill-rule="evenodd" clip-rule="evenodd" d="M259.006 203.215C262.297 190.052 264.354 176.067 264.765 161.465C265.382 141.104 265.793 120.537 265.793 99.9703L212.937 157.146L235.766 57.1917L205.327 73.4393L182.498 11.3281L159.464 73.2337L129.025 56.986L151.854 156.94L97.764 98.7363L94.2677 124.239L49.8438 111.282L70.4104 159.613L51.6947 164.755L115.04 212.058C187.229 184.293 232.475 192.314 259.006 203.215Z" fill="#D8232A"/>
<path fill-rule="evenodd" clip-rule="evenodd" d="M245.644 44.4397L225.077 134.11L266.005 90.0976C266.005 70.148 266.005 49.9927 266.21 30.0431C266.21 26.3411 265.388 24.2844 261.48 23.0504C237.211 14.6181 212.326 8.24243 187.029 4.33477L208.829 63.7723L245.644 44.4397ZM107.436 214.937L36.4811 162.081L61.161 155.294L38.1264 100.998L88.5146 115.806L92.8336 83.9276L139.52 134.316L118.953 44.6453L155.562 63.978L177.979 3.10076C171.809 2.27809 165.639 1.66109 159.469 1.0441C107.025 -3.06923 56.0194 5.15744 6.45378 22.4334C1.72346 24.0787 0.078125 26.341 0.078125 31.277C0.283791 53.6947 0.283792 98.7356 0.283792 98.7356C0.283792 119.097 0.0781258 139.252 0.283792 159.613C0.489458 172.775 2.13479 185.321 5.01411 197.867C23.3184 216.582 54.991 233.036 107.436 214.937Z" fill="#0A0B09"/>
</svg>
